<svg xmlns="http://www.w3.org/2000/svg" x="0" y="0" version="1.1" viewBox="0 0 5120 5120" xml:space="preserve">
  <path d="M4458 2014c0 1520-1716 2928-1716 2928a300 300 0 01-364 0S662 3534 662 2014a1898 1898 0 01 3796 0" fill="#ee3840"/>
  <path d="M2560 2970a956 956 0 01 0-1910 956 956 0 01 0 1910" fill="#ffe1d6"/>
  <g fill="#11113f">
    <path d="M2560 0C1450 0 546 904 546 2014c0 364 94 750 279 1148 146 314 350 636 604 958a6505 6505 0 00 875 912A404 404 0 00 2560 5120a410 410 0 00 256-88c18-15 443-366 875-912a4883 4883 0 00 604-958 2732 2732 0 00 280-1148A2018 2018 0 00 2560 0zm952 3973a6399 6399 0 01-843 880c-58 47-160 47-218 0-4-4-427-353-843-880-380-480-830-1208-830-1959 0-983 800-1782 1782-1782s1783 800 1783 1782c0 750-452 1480-830 1959"/>
    <path d="M2560 943a1072 1072 0 00 0 2142 1072 1072 0 00 0-2142zm0 1910a840 840 0 01 0-1678 840 840 0 01 0 1679"/>
  </g>
</svg>
